<svg xmlns="http://www.w3.org/2000/svg" viewBox="0 0 512 512"><circle cx="256" cy="256" r="256" fill="#324a5e"/><path d="M437.019 437.019c37.223-37.221 60.575-83.056 70.08-131.087l-70.444-70.444c0 .514-93.579.51-152.593.459l-64.824-64.824c-.169.169-1.948.817-4.486 1.683l-10.755-10.757S97.299 293.068 98.115 292.25l213.631 213.63c45.909-10.195 89.557-33.144 125.273-68.861z" fill="#2b3b4e"/><path d="M315.53 132.998L143.158 305.369c-7.718 7.718-7.718 20.233 0 27.951 7.72 7.72 20.233 7.718 27.951 0-7.718 7.718-7.718 20.233 0 27.953 7.718 7.718 20.233 7.718 27.951 0-7.718 7.718-7.718 20.233 0 27.951s20.233 7.718 27.951 0c-7.718 7.718-7.718 20.233 0 27.951s20.233 7.718 27.951 0l104.42-104.42c11.798-11.8 11.798-30.93 0-42.729l46.587-46.587-90.439-90.441z" fill="#eabc92"/><path d="M405.975 223.442l-39.458-39.458-183.004 183.003c5.57.443 11.29-1.453 15.55-5.713-7.718 7.72-7.718 20.233 0 27.951 7.718 7.72 20.233 7.72 27.951 0-7.718 7.72-7.718 20.233 0 27.951 7.718 7.72 20.233 7.72 27.951 0l104.42-104.42c11.798-11.8 11.798-30.93 0-42.729l46.59-46.585z" fill="#dbaa82"/><path d="M181.97 152.49l172.372 172.372c7.718 7.718 7.718 20.233 0 27.951-7.72 7.72-20.233 7.718-27.951 0 7.718 7.718 7.718 20.233 0 27.953-7.718 7.718-20.233 7.718-27.951 0 7.718 7.718 7.718 20.233 0 27.951s-20.233 7.718-27.951 0c7.718 7.718 7.718 20.233 0 27.951s-20.233 7.718-27.951 0l-104.424-104.42c-11.798-11.798-11.798-30.93 0-42.729l-46.587-46.587 90.443-90.442z" fill="#f4e3c3"/><path d="M91.526 242.933l46.587 46.587c-11.8 11.8-11.8 30.929 0 42.729l104.42 104.42c7.718 7.72 20.233 7.72 27.951 0s7.718-20.233 0-27.951c7.718 7.72 20.233 7.718 27.951 0 6.923-6.923 7.616-17.694 2.12-25.412L125.857 208.603l-34.331 34.33z" fill="#fed8b2"/><path fill="#84dbff" d="M98.105 292.253l-37.268-37.268 121.128-121.128 37.269 37.268z"/><path fill="#31bafd" d="M153.812 236.565L98.12 292.258l-37.268-37.269 55.693-55.693z"/><path d="M303.24 217.5l-29.437 29.437c-8.128 8.128-21.307 8.128-29.437 0l-44.156 44.156c-8.128 8.128-21.307 8.128-29.437 0-8.128-8.128-8.128-21.307 0-29.437L303.24 129.189V217.5z" fill="#eabc92"/><path fill="#b5f1f4" d="M278.252 151.623l37.268-37.268L436.65 235.483l-37.269 37.269z"/><path fill="#84dbff" d="M399.4 272.757l-60.82-60.821 37.268-37.268 60.82 60.82z"/><path d="M239.942 434.078l14.281-14.281c7.72-7.72 7.718-20.233 0-27.951-7.72-7.72-20.233-7.72-27.951 0 7.718-7.718 7.718-20.233 0-27.951s-20.233-7.72-27.951 0c7.72-7.72 7.718-20.233 0-27.953-7.718-7.72-20.233-7.72-27.951 0 7.718-7.72 7.718-20.233 0-27.951-7.718-7.72-20.233-7.72-27.951 0l-11.807 11.807a30.056 30.056 0 007.506 12.455l101.824 101.825z" fill="#eabc92"/><path d="M226.271 391.844c7.718-7.718 7.718-20.233 0-27.951-7.718-7.72-20.233-7.72-27.951 0 4.687-4.687 6.509-11.138 5.504-17.215l-25.641 25.641 61.759 61.759 14.281-14.281c7.718-7.72 7.718-20.233 0-27.951-7.718-7.72-20.234-7.72-27.952-.002z" fill="#dbaa82"/></svg>