<svg xmlns="http://www.w3.org/2000/svg" viewBox="0 0 297 297"><circle cx="148.5" cy="148.5" r="148.5" fill="#f86e51"/><path d="M296.745 139.891L243.774 86.89 54.124 210.989l85.738 85.755c2.859.164 5.738.256 8.638.256 82.014 0 148.5-66.486 148.5-148.5 0-2.89-.092-5.759-.255-8.609z" fill="#d14d37"/><path d="M96.75 88.75h-33V77.541a5.291 5.291 0 015.292-5.291h22.417a5.291 5.291 0 015.291 5.291V88.75zM117.25 88.5h-16V76.128a3.628 3.628 0 013.628-3.628h8.743a3.628 3.628 0 013.628 3.628l.001 12.372z" fill="#664d4c"/><path d="M63.333 214.5h170.333c7.64 0 13.833-6.193 13.833-13.833V96.334c0-7.64-6.193-13.834-13.833-13.834H63.333c-7.64 0-13.833 6.193-13.833 13.834v104.333c0 7.64 6.193 13.833 13.833 13.833z" fill="#32373b"/><path fill="#664d4c" d="M49.5 123.75h198v49.5h-198z"/><circle cx="148.5" cy="148.5" r="49.5" fill="#847979"/><circle cx="148.5" cy="148.5" r="33" fill="#fff"/><circle cx="165" cy="132" r="7" fill="#bdc3c7"/><circle cx="155.5" cy="141.5" r="3" fill="#bdc3c7"/></svg>