<svg height="256" viewBox="0 0 256 256" width="256" xmlns="http://www.w3.org/2000/svg"><circle cx="128" cy="128" r="128" fill="#3468d1"/><path d="M113.727 88.735a12.652 12.652 0 11-12.654 12.652 12.654 12.654 0 0112.654-12.652zm30.546 0a12.652 12.652 0 11-12.655 12.652 12.654 12.654 0 0112.655-12.652zm0 53.226a12.652 12.652 0 11-12.655 12.652 12.653 12.653 0 0112.655-12.652zm-30.546 0a12.652 12.652 0 11-12.654 12.652 12.653 12.653 0 0112.654-12.652zm-15.709-26.177a12.652 12.652 0 11-12.654 12.652 12.654 12.654 0 0112.654-12.652zm61.964 0a12.652 12.652 0 11-12.655 12.652 12.653 12.653 0 0112.655-12.652zm14.4-21.813a7.853 7.853 0 11-7.855 7.853 7.853 7.853 0 017.855-7.853zm0 52.352a7.853 7.853 0 11-7.855 7.853 7.853 7.853 0 017.855-7.853zm-90.764 0a7.853 7.853 0 11-7.854 7.853 7.854 7.854 0 017.854-7.853zm0-52.352a7.853 7.853 0 11-7.854 7.853 7.854 7.854 0 017.854-7.853zM129 67.794a7.853 7.853 0 11-7.855 7.853A7.853 7.853 0 01129 67.794zm0 104.706a7.853 7.853 0 11-7.855 7.853A7.853 7.853 0 01129 172.5zm33.6 7.853a6.544 6.544 0 11-6.546 6.544 6.544 6.544 0 016.546-6.544zm-67.2 0a6.544 6.544 0 11-6.546 6.544 6.544 6.544 0 016.546-6.544zm0-117.794a6.544 6.544 0 11-6.546 6.544 6.544 6.544 0 016.546-6.544zm67.2 0a6.544 6.544 0 11-6.546 6.544 6.544 6.544 0 016.546-6.544zm34.036 58.461a6.544 6.544 0 11-6.545 6.544 6.545 6.545 0 016.545-6.544zm-135.273 0a6.544 6.544 0 11-6.545 6.544 6.544 6.544 0 016.545-6.544zm-4.8-40.138a5.236 5.236 0 11-5.236 5.235 5.236 5.236 0 015.236-5.235zm0 83.765a5.236 5.236 0 11-5.236 5.235 5.236 5.236 0 015.236-5.235zm144.873 0a5.236 5.236 0 11-5.236 5.235 5.236 5.236 0 015.236-5.235zm0-83.765a5.236 5.236 0 11-5.236 5.235 5.236 5.236 0 015.236-5.235zM129 39a5.236 5.236 0 11-5.237 5.235A5.235 5.235 0 01129 39zm0 167.529a5.236 5.236 0 11-5.237 5.236 5.236 5.236 0 015.237-5.236zm46.254-3.49a4.363 4.363 0 11-4.363 4.363 4.363 4.363 0 014.363-4.363zm-92.509 0a4.363 4.363 0 11-4.363 4.363 4.363 4.363 0 014.363-4.363zm0-158.8a4.363 4.363 0 11-4.363 4.363 4.363 4.363 0 014.363-4.367zm92.509 0a4.363 4.363 0 11-4.363 4.363 4.363 4.363 0 014.363-4.367zm45.382 79.4a4.363 4.363 0 11-4.363 4.361 4.363 4.363 0 014.363-4.363zm-183.273 0A4.363 4.363 0 1133 128a4.363 4.363 0 014.363-4.363z" fill="#fff" fill-rule="evenodd"/></svg>