<svg xmlns="http://www.w3.org/2000/svg" viewBox="0 0 512 512"><circle cx="256" cy="256" r="256" fill="#366796"/><path d="M370.652 142.965l-28.5 25.919-132.41 4.31.695 150.249-72.416 79.11 109.52 109.294c2.81.091 5.627.153 8.459.153 132.311 0 241.171-100.378 254.6-229.136L370.652 142.965z" fill="#273b7a"/><path d="M286.351 307.165l-85.333-28.444a6.033 6.033 0 00-7.304 3.025l-56.889 113.778a6.04 6.04 0 00.264 5.87 6.037 6.037 0 005.134 2.862h142.222a6.034 6.034 0 006.034-6.034v-85.333a6.034 6.034 0 00-4.128-5.724z" fill="#38c6d9"/><path d="M355.556 136.189c-11.169 0-20.256 9.087-20.256 20.256 0 2.915.631 5.682 1.745 8.189H199.111a6.034 6.034 0 100 12.068h127.657l-75.033 75.033a6.031 6.031 0 000 8.532 6.012 6.012 0 004.267 1.767c1.545 0 3.087-.59 4.267-1.767l75.033-75.033v127.657a6.034 6.034 0 1012.068 0V174.956a20.107 20.107 0 008.189 1.745c11.169 0 20.256-9.087 20.256-20.256s-9.09-20.256-20.259-20.256z" fill="#71e2ef"/><path d="M369.738 142.007L250.406 258.265c.295.727.736 1.41 1.327 2a6.012 6.012 0 004.267 1.767c1.545 0 3.087-.59 4.267-1.767l75.033-75.033v127.657a6.034 6.034 0 1012.068 0V174.956a20.107 20.107 0 008.189 1.745c11.169 0 20.256-9.087 20.256-20.256-.002-5.65-2.332-10.759-6.075-14.438z" fill="#38c6d9"/><path d="M167.574 115.364c-33.747 62.697-24.183 142.55 28.755 195.487s132.791 62.507 195.489 28.763l-224.244-224.25z" fill="#ffedb5"/><path d="M391.818 339.615l-110.987-110.99-84.451 82.277c52.938 52.894 132.76 62.446 195.438 28.713z" fill="#fee187"/></svg>