<svg xmlns="http://www.w3.org/2000/svg" viewBox="0 0 512 512"><circle cx="256" cy="256" r="256" fill="#ffd300"/><path d="M512 256L398.222 142.222 372.993 245.42 267.495 139.923c-1.15-1.15-54.015 46.545-54.015 46.545l-90.957 92.162 218.224 218.989C440.479 462.641 512 367.68 512 256z" fill="#f9b54c"/><g fill="#935635"><path d="M256 199.111h34.478v113.778H256zM363.744 142.222h34.478v170.667h-34.478z"/></g><path fill="#9a4f03" d="M309.872 240.364h34.478v72.525h-34.478z"/><path fill="#2b3b4e" d="M296.51 292.824l-17.754 17.755-35.509-35.508 17.755-17.756z"/><path fill="#1e2c3a" d="M289.215 300.109l-10.452 10.452-35.509-35.508 10.453-10.453z"/><circle cx="192.94" cy="207.007" r="100.452" fill="#324a5e"/><path d="M123.53 134.446c-.536.514-1.086 1.007-1.615 1.536-39.226 39.226-39.226 102.822 0 142.048s102.822 39.226 142.048 0c.528-.528 1.021-1.077 1.536-1.615L123.53 134.446z" fill="#2b3b4e"/><circle cx="192.94" cy="207.007" r="75.333" fill="#b5f1f4"/><path d="M141.286 152.202c-.54.509-1.086 1.007-1.615 1.536-29.418 29.418-29.418 77.117 0 106.536s77.117 29.418 106.536 0c.528-.527 1.026-1.076 1.536-1.615L141.286 152.202z" fill="#84dbff"/><path d="M400.72 389.856l-22.599 22.599c-4.21 4.21-11.035 4.21-15.246 0l-91.289-91.291c-4.21-4.21-4.21-11.035 0-15.246l22.599-22.599c4.21-4.21 11.035-4.21 15.246 0l91.291 91.291c4.208 4.211 4.208 11.036-.002 15.246z" fill="#324a5e"/><path d="M271.586 305.919c-4.21 4.21-4.21 11.035 0 15.246l91.291 91.291c4.21 4.21 11.035 4.21 15.246 0l11.709-11.709-106.536-106.535-11.71 11.707z" fill="#2b3b4e"/></svg>