<svg xmlns="http://www.w3.org/2000/svg" viewBox="0 0 512 512"><circle cx="256" cy="256" r="256" fill="#90dfaa"/><path d="M508.114 300.639L369.778 162.302 205.145 325.818l-61.487 72.404 113.761 113.761c125.523-.683 229.653-91.693 250.695-211.344z" fill="#2c9984"/><path fill="#fff" d="M321.253 113.778H143.658v284.444h226.12v-235.92z"/><path fill="#e6f3ff" d="M369.778 162.302l-48.525-48.524h-84.216v284.444h132.741z"/><path fill="#cfdbe6" d="M321.253 162.304l48.525-.002-48.525-48.524z"/><circle cx="237.037" cy="215.143" r="37.9" fill="#26bebe"/><path d="M274.937 215.14c0-20.932-16.968-37.9-37.898-37.9v75.798c20.93 0 37.898-16.968 37.898-37.898z" fill="#1da09c"/><path d="M158.868 334.76c0-43.172 34.997-78.169 78.169-78.169s78.169 34.997 78.169 78.169H158.868z" fill="#324a5e"/><path d="M237.037 256.593v78.169h78.167c.002-43.172-34.995-78.169-78.167-78.169z" fill="#2b3b4e"/><circle cx="350.815" cy="293.926" r="63.104" fill="#ffd15d"/><g fill="#f4a200"><path d="M350.815 369.778c-41.825 0-75.852-34.026-75.852-75.852s34.026-75.852 75.852-75.852 75.852 34.026 75.852 75.852-34.027 75.852-75.852 75.852zm0-126.207c-27.765 0-50.355 22.59-50.355 50.355 0 27.765 22.59 50.355 50.355 50.355 27.765 0 50.355-22.59 50.355-50.355 0-27.765-22.59-50.355-50.355-50.355z"/><path d="M339.334 265.24h22.947v57.372h-22.947z"/></g></svg>