<svg xmlns="http://www.w3.org/2000/svg" viewBox="0 0 512 512"><circle cx="256" cy="256" r="256" fill="#366796"/><path d="M503.322 189.736l-81.513-81.605-162.937 126.761-123.13 181.924 93.915 93.842a259.347 259.347 0 0026.341 1.341c141.384 0 256-114.616 256-256 .002-22.917-3.027-45.126-8.676-66.263z" fill="#263a7a"/><circle cx="203.128" cy="350.522" r="94.527" fill="#ffedb5"/><g fill="#386895"><circle cx="193.974" cy="332.731" r="8.594"/><circle cx="247.398" cy="332.731" r="8.594"/><path d="M192.515 377.482c6.041 7.425 15.241 12.174 25.559 12.174s19.518-4.749 25.559-12.174h-51.118z"/></g><path d="M409.686 103.041h-196.78c-9.378 0-16.98 7.602-16.98 16.98v97.89c0 9.378 7.602 16.98 16.98 16.98h15.982v37.224c0 7.273 8.794 10.916 13.938 5.773l42.998-42.998h123.861c9.378 0 16.98-7.602 16.98-16.98v-97.89c.002-9.376-7.601-16.979-16.979-16.979z" fill="#ff7f4f"/><path d="M409.686 103.04H307.143v131.851h102.543c9.378 0 16.98-7.602 16.98-16.98v-97.889c.001-9.38-7.602-16.982-16.98-16.982z" fill="#ff5419"/><g fill="#366695"><path d="M228.883 143.274h164.823v10.343H228.883zM228.883 176.235h164.823v10.343H228.883z"/></g></svg>