<svg xmlns="http://www.w3.org/2000/svg" viewBox="0 0 512 512"><circle cx="256" cy="256" r="256" fill="#263a7a"/><path d="M396.062 148.928L118.28 335.858l173.502 173.64c121.637-17.015 215.866-119.491 220.053-244.796L396.062 148.928z" fill="#121149"/><path d="M131.489 142.222h249.02c11.867 0 21.488 9.621 21.488 21.488v155.198c0 11.867-9.621 21.488-21.488 21.488h-20.225v47.107c0 9.206-11.13 13.815-17.637 7.306l-54.413-54.413H131.491c-11.867 0-21.488-9.621-21.488-21.488V163.711c-.002-11.868 9.619-21.489 21.486-21.489z" fill="#ffedb5"/><g fill="#fee187"><path d="M401.998 163.711c0-11.867-9.621-21.488-21.488-21.488H255.426v198.175h32.808l54.413 54.413c6.509 6.509 17.637 1.9 17.637-7.306v-47.107h20.225c11.867 0 21.488-9.621 21.488-21.488V163.711z"/><path d="M342.647 394.811c6.509 6.509 17.637 1.9 17.637-7.306v-47.107h20.225c10.692 0 19.535-7.818 21.187-18.044L256 227.556l-145.698 94.798c1.652 10.226 10.495 18.044 21.187 18.044h156.743l54.415 54.413z"/></g><path d="M256 227.556l-.574.374v112.468h32.808l54.413 54.413c6.509 6.509 17.637 1.9 17.637-7.306v-47.107h20.225c10.692 0 19.535-7.818 21.187-18.044L256 227.556z" fill="#ffc91b"/><path d="M116.891 147.973L256 256l139.107-108.027c-3.834-3.558-8.954-5.751-14.598-5.751h-249.02c-5.642 0-10.762 2.193-14.598 5.751z" fill="#ffc61b"/><path d="M395.107 147.973c-3.834-3.558-8.954-5.751-14.598-5.751H255.426v113.331L256 256l139.107-108.027z" fill="#d48b07"/></svg>