<svg width="70" height="70" viewBox="0 0 70 70" xmlns="http://www.w3.org/2000/svg"><path d="M30.67 69.81C19.737 68.38 10.3 62.107 4.653 52.514c-1.88-3.192-3.384-7.303-4.1-11.2-.974-5.313-.653-11.179.893-16.302 1.274-4.22 3.297-8.12 6.077-11.715 1.16-1.501 4.283-4.626 5.783-5.787C18.822 3.24 25.111.735 31.896.102c2.147-.2 6.128-.094 8.176.218C50.919 1.974 60.24 8.433 65.64 18.036c5.113 9.095 5.774 20.648 1.737 30.356-4.892 11.76-15.56 19.85-28.262 21.432-1.94.241-6.548.233-8.446-.014zm-4.628-12.336c.408-1.121 1.015-2.016 1.962-2.893l.81-.751-.65-.091c-3.574-.499-7.442-1.768-9.883-3.243-4.124-2.492-6.21-7.136-6.21-13.82 0-2.91.32-4.534 1.264-6.417.647-1.29.89-1.658 1.774-2.697l.66-.774-.354-1.354c-.61-2.334-.509-4.538.325-7.089l.348-1.064h.908c2.003 0 4.51.94 7.46 2.795l1.455.913 1.625-.396c2.634-.644 3.913-.773 7.594-.765 3.607.01 4.944.15 7.578.817l1.37.347 1.326-.836c2.977-1.88 5.6-2.873 7.588-2.875h.91l.286.79c.998 2.753 1.087 5.655.248 8.08l-.182.526.88 1.105c.999 1.255 2.105 3.42 2.425 4.745.945 3.919.336 9.652-1.392 13.114-1.265 2.534-3.034 4.24-5.879 5.672-1.732.871-5.45 1.967-8.05 2.372l-1.06.165.562.445c.7.555 1.412 1.443 1.856 2.316.59 1.16.726 2.21.728 5.629.002 2.933.019 3.133.243 3.047.132-.051.796-.287 1.475-.525 1.64-.573 4.748-2.158 6.452-3.289 6.279-4.168 10.903-10.447 12.96-17.596.88-3.06 1.246-5.647 1.246-8.81 0-8.851-3.396-16.805-9.81-22.983-4.74-4.565-10.725-7.476-17.436-8.481-2.236-.335-6.656-.34-8.853-.011-7.05 1.057-13.02 4.05-17.983 9.017-4.927 4.93-7.925 10.874-9.009 17.861-.339 2.188-.339 6.867 0 9.055.624 4.02 2.069 8.185 3.95 11.384 3.812 6.479 9.82 11.518 16.565 13.894l1.467.517.08-3.521c.07-3.13.111-3.612.371-4.325z" fill="#00bcf2"/></svg>