<svg xmlns="http://www.w3.org/2000/svg" viewBox="0 0 512 512"><circle cx="256" cy="256" r="256" fill="#263a7a"/><path d="M509.225 293.74l-86.03-86.03-19.089 6.309-89.6-89.6-96.516 30.229 76.021 95.76-51.195 16.92-58.466-59.842-59.961 98.982-35.845 11.847L281.01 510.781c.579-.055 1.162-.114 1.741-.169C399.084 498.531 492.26 408.55 509.225 293.74z" fill="#121149"/><path fill="#ffedb5" d="M183.199 257.103h169.874v12.067H183.199z"/><g fill="#ff7f4f"><path d="M227.624 400.294c0 5.461 4.427 9.888 9.888 9.888h36.974c5.461 0 9.888-4.427 9.888-9.888v-20.208h-56.751v20.208z"/><path d="M255.426 380.087v30.096h19.061c5.461 0 9.888-4.427 9.888-9.888v-20.208h-28.949z"/></g><g fill="#38c6d9"><path d="M172.015 323.803h-70.723c-9.766 0-17.682-7.916-17.682-17.682v-85.973c0-9.766 7.916-17.682 17.682-17.682h70.723c9.766 0 17.682 7.916 17.682 17.682v85.973c-.002 9.766-7.918 17.682-17.682 17.682zM410.708 323.803h-70.723c-9.766 0-17.682-7.916-17.682-17.682v-85.973c0-9.766 7.916-17.682 17.682-17.682h70.723c9.766 0 17.682 7.916 17.682 17.682v85.973c.001 9.766-7.916 17.682-17.682 17.682z"/></g><path d="M224.38 396.605h63.241c9.342 0 16.913-7.573 16.913-16.913V195.113c0-9.342-7.573-16.913-16.913-16.913H224.38c-9.342 0-16.913 7.573-16.913 16.913v184.579c-.002 9.34 7.571 16.913 16.913 16.913z" fill="#97d6db"/><path d="M287.622 178.2h-32.196v218.405h32.196c9.342 0 16.913-7.573 16.913-16.913V195.113c0-9.341-7.573-16.913-16.913-16.913z" fill="#38c6d9"/><path d="M304.535 195.113c0-9.34-7.573-16.913-16.913-16.913H224.38c-9.342 0-16.913 7.573-16.913 16.913v34.563h97.07v-34.563h-.002z" fill="#ffc61b"/><path d="M304.535 195.113c0-9.34-7.573-16.913-16.913-16.913h-32.196v51.476h49.109v-34.563z" fill="#d8a013"/><path d="M293.424 141.346l-33.976-50.604v-9.611c0-1.903-1.545-3.448-3.448-3.448s-3.448 1.545-3.448 3.448v9.611l-33.976 50.604a3.446 3.446 0 00.94 4.784 3.444 3.444 0 004.784-.94l28.253-42.077v26.552c0 1.903 1.545 3.448 3.448 3.448s3.448-1.545 3.448-3.448v-26.552l28.253 42.079a3.445 3.445 0 004.784.94 3.45 3.45 0 00.938-4.786z" fill="#71e2ef"/><path d="M293.424 141.346l-33.976-50.604v-9.611A3.45 3.45 0 00256 77.683c-.197 0-.386.026-.574.059v55.313c.188.033.378.059.574.059a3.45 3.45 0 003.448-3.448v-26.553l28.253 42.079a3.445 3.445 0 004.784.94 3.449 3.449 0 00.939-4.786z" fill="#38c6d9"/><path d="M197.494 124.418c7.552 25.162 30.882 43.501 58.506 43.501s50.953-18.337 58.508-43.499l-117.014-.002z" fill="#ffedb5"/><path d="M255.426 124.418v43.489c.191.002.381.012.572.012 27.624 0 50.953-18.337 58.508-43.499l-59.08-.002z" fill="#fee187"/></svg>