<svg xmlns="http://www.w3.org/2000/svg" viewBox="0 0 512 512"><circle cx="256" cy="256" r="256" fill="#ffedb5"/><path d="M369.778 128c-11.042 9.744-17.863 22.916-25.859 34.909-13.791 17.239-29.306 32.754-41.374 51.717-12.067 20.687-32.754 36.202-41.374 58.613a66.185 66.185 0 00-1.638 4.589l-117.312 20.839 76.81 60.63c-38.433-.553-78.703-9.29-111.756 3.982L256 512c136.738 0 248.43-107.208 255.624-242.154L369.778 128z" fill="#ffc61b"/><path d="M398.222 344.35H267.205v-74.128c0-6.189-5.017-11.205-11.205-11.205-6.189 0-11.205 5.017-11.205 11.205v74.128H113.778c-6.189 0-11.205 5.017-11.205 11.205s5.017 11.205 11.205 11.205h284.444c6.189 0 11.205-5.017 11.205-11.205s-5.016-11.205-11.205-11.205z" fill="#940030"/><path d="M398.222 344.35H267.205v-74.128c0-6.189-5.017-11.205-11.205-11.205-.388 0-.771.019-1.148.059v107.685h143.37c6.189 0 11.205-5.017 11.205-11.205s-5.016-11.206-11.205-11.206z" fill="#840030"/><g fill="#ff6161"><circle cx="170.667" cy="355.556" r="28.444"/><circle cx="341.333" cy="355.556" r="28.444"/></g><path fill="#e03a00" d="M142.222 128h227.556v170.667H142.222z"/><path fill="#bc2c00" d="M254.845 128h114.933v170.667H254.845z"/><g fill="#940030"><path d="M170.667 180.579h170.667v8.62H170.667zM170.667 209.024h170.667v8.62H170.667zM170.667 237.468h170.667v8.62H170.667z"/></g></svg>