<svg xmlns="http://www.w3.org/2000/svg" viewBox="0 0 512 512"><circle cx="256" cy="256" r="256" fill="#90dfaa"/><path d="M509.705 290.299L301.684 82.275 198.537 283.007l-56.217 92.66 135.447 135.401c119.81-10.089 216.125-102.68 231.938-220.769z" fill="#2c9984"/><path d="M118.088 308.748c0-76.167 61.745-172.391 137.912-172.391s137.912 96.223 137.912 172.391S332.167 412.182 256 412.182s-137.912-27.267-137.912-103.434z" fill="#324a5e"/><path d="M256 136.359c-.191 0-.383.01-.574.012v275.808c.193 0 .381.007.574.007 76.167 0 137.912-27.267 137.912-103.434 0-76.17-61.745-172.393-137.912-172.393z" fill="#2b3b4e"/><path d="M301.684 82.275c0 30.036-20.452 54.386-45.684 54.386s-45.684-24.35-45.684-54.386h91.368z" fill="#324a5e"/><path d="M255.426 82.275v54.369c.191.003.381.017.574.017 25.231 0 45.684-24.348 45.684-54.386h-46.258z" fill="#2b3b4e"/><circle cx="256" cy="288.185" r="43.882" fill="#ffd15d"/><g fill="#f9b54c"><path d="M256 244.305c-.193 0-.383.012-.574.014v87.733c.191.002.381.014.574.014 24.235 0 43.882-19.646 43.882-43.882 0-24.237-19.647-43.879-43.882-43.879z"/><path d="M256 342.411c-29.899 0-54.224-24.324-54.224-54.225S226.101 233.96 256 233.96s54.224 24.324 54.224 54.225-24.325 54.226-54.224 54.226zm0-87.764c-18.492 0-33.537 15.046-33.537 33.539s15.046 33.539 33.537 33.539 33.537-15.046 33.537-33.539-15.045-33.539-33.537-33.539z"/></g><path d="M256 233.96c-.193 0-.383.012-.574.014v20.701c.193-.003.381-.029.574-.029 18.492 0 33.537 15.046 33.537 33.539S274.491 321.722 256 321.722c-.193 0-.381-.026-.574-.029v20.701c.191.002.381.014.574.014 29.899 0 54.224-24.324 54.224-54.225 0-29.902-24.325-54.223-54.224-54.223z" fill="#f4a200"/><path fill="#f9b54c" d="M221.522 121.535h68.956v20.687h-68.956z"/><path fill="#f4a200" d="M255.431 121.535h35.052v20.687h-35.052z"/></svg>