<svg xmlns="http://www.w3.org/2000/svg" viewBox="0 0 512.002 512.002"><circle cx="256.001" cy="256" r="256" fill="#b5f1f4"/><path d="M511.997 256.283l-80.57-80.965-88.557 88.252-95.694-98.226-26.228 32.62-46.292 39.793 79.046 74.561-156.228 62.607 136.087 136.087c7.396.643 14.877.99 22.44.99C397.292 512 511.844 397.538 511.997 256.283z" fill="#4cdbc4"/><circle cx="210.835" cy="201.456" r="51.243" fill="#f9b54c"/><path d="M262.071 201.457c0-28.182-22.754-51.043-50.891-51.234v102.469c28.139-.192 50.891-23.052 50.891-51.235z" fill="#f4a200"/><path d="M97.474 374.924c0-62.604 50.75-113.354 113.354-113.354s113.354 50.75 113.354 113.354H97.474z" fill="#324a5e"/><path d="M211.181 261.579v113.345h113.002c0-62.487-50.562-113.156-113.002-113.345z" fill="#2b3b4e"/><path d="M413.861 168.083H304.418c-13.777 0-24.947 11.169-24.947 24.947v77.576c0 13.777 11.169 24.947 24.947 24.947h14.646v31.866l31.866-31.866h62.929c13.777 0 24.947-11.169 24.947-24.947V193.03c.001-13.78-11.168-24.947-24.945-24.947z" fill="#2c9984"/><circle cx="359.142" cy="229.641" r="38.662" fill="#ffd15d"/><g fill="#f4a200"><path d="M359.14 276.115c-25.626 0-46.473-20.847-46.473-46.473s20.847-46.473 46.473-46.473c25.626 0 46.473 20.847 46.473 46.473 0 25.625-20.847 46.473-46.473 46.473zm0-77.325c-17.012 0-30.851 13.84-30.851 30.851s13.84 30.851 30.851 30.851 30.851-13.84 30.851-30.851-13.839-30.851-30.851-30.851z"/><path d="M352.109 212.075h14.058v35.147h-14.058z"/></g></svg>