<svg xmlns="http://www.w3.org/2000/svg" viewBox="0 0 512 512"><circle cx="256" cy="256" r="256" fill="#ffd15d"/><path d="M504.601 317.269L309.036 120.961l-99.294 15.515 6.034 180.739-54.61 61.661 130.555 130.631c104.134-14.541 188.189-91.713 212.88-192.238z" fill="#f9b54c"/><path d="M330.99 245.972h-36.411v-71.739c0-21.511-17.306-39.012-38.579-39.012s-38.579 17.501-38.579 39.012v71.739H181.01v-71.739c0-41.589 33.64-75.423 74.99-75.423s74.99 33.833 74.99 75.423v71.739z" fill="#324a5e"/><path d="M256 98.809c-.193 0-.381.014-.574.014v36.412c.191-.003.381-.016.574-.016 21.273 0 38.579 17.501 38.579 39.012v71.739h36.411v-71.739c0-41.587-33.64-75.422-74.99-75.422z" fill="#2b3b4e"/><path d="M304.412 398.222h-96.825c-36.1 0-65.365-29.265-65.365-65.365V227.556h227.556v105.301c0 36.1-29.265 65.365-65.366 65.365z" fill="#fc6f58"/><path d="M255.426 227.556v170.667h48.986c36.1 0 65.365-29.265 65.365-65.365V227.556H255.426z" fill="#f1543f"/><path d="M274.101 294.357c0-9.997-8.104-18.101-18.101-18.101s-18.101 8.104-18.101 18.101c0 6.516 3.455 12.21 8.62 15.398v23.983a8.887 8.887 0 008.888 8.888h1.186a8.887 8.887 0 008.888-8.888v-23.983c5.165-3.188 8.62-8.882 8.62-15.398z" fill="#324a5e"/><path d="M256 276.256c-.193 0-.381.022-.574.029v66.341h1.167a8.887 8.887 0 008.888-8.888v-23.983c5.165-3.188 8.62-8.882 8.62-15.398 0-9.997-8.104-18.101-18.101-18.101z" fill="#2b3b4e"/></svg>