<svg height="256" viewBox="0 0 256 256" width="256" xmlns="http://www.w3.org/2000/svg"><g data-name="ripple xrp coin"><g data-name="ripple xrp"><circle cx="128" cy="128" data-name="Эллипс 21" r="128" fill="#0089c1"/><path d="M155.764 114.5l.062.06s-.279-.02-.744-.03c-.183.01-.36.03-.543.03-.111 0-.218-.02-.329-.02-3.95.13-13.827 1.55-13.827 12.82 0 14.08 15.443 14.08 15.443 14.08v.06a33.267 33.267 0 11-34.748 33.22 32.984 32.984 0 016.573-19.75c.5-2.14 1.871-10.25-4-16.09-5.3-5.27-15.567-.92-19.877 3.78a31.977 31.977 0 01-1.947 3.57 3.149 3.149 0 00-.054.33c-.035-.02-.068-.05-.1-.07a33.265 33.265 0 11.935-34.17l.455-.32s5.148 7.68 11.582 7.68 12.87-3.25 12.87-12.8a21.767 21.767 0 00-1.2-7.78 32.687 32.687 0 01-1.611-2.81 4.15 4.15 0 00-1.051-.93l.455-.3a32.955 32.955 0 01-3.029-13.78 33.462 33.462 0 1134.685 33.22z" data-name="Фигура 5" fill="#fff" fill-rule="evenodd"/></g></g></svg>