<svg xmlns="http://www.w3.org/2000/svg" viewBox="0 0 392.533 392.533"><g fill="#fff"><path d="M245.98 102.659c3.426 16.226 5.495 33.745 6.077 52.234h57.277c-1.745-23.079-8.986-44.671-20.299-63.418-14.869 4.654-29.221 8.339-43.055 11.184zM176.743 205.317c7.822-11.055 17.455-20.687 28.574-28.574h-28.574v28.574zM216.824 31.289c9.632 13.317 17.713 30.448 23.661 50.23 11.378-2.327 23.014-5.107 34.974-8.663-15.516-18.424-35.685-32.84-58.635-41.567zM176.743 24.178v64.905c13.446-.453 27.604-1.681 42.408-3.879-10.278-32.453-26.117-54.174-42.408-61.026zM154.828 176.808h-53.527c.646 17.519 2.521 33.745 5.624 48.356a398.742 398.742 0 0147.903-4.461v-43.895zM176.743 154.893h53.527c-.646-17.455-2.521-33.681-5.56-48.291-16.873 2.651-32.84 4.008-47.903 4.655v43.636h-.064zM114.748 300.412c-9.632-13.382-17.713-30.448-23.725-50.295a431.996 431.996 0 00-34.974 8.727c15.644 18.489 35.749 32.841 58.699 41.568zM22.238 154.893H79.58c.646-18.036 2.651-35.103 5.883-51.006-20.17-4.073-34.909-8.986-43.119-11.96a141.501 141.501 0 00-20.106 62.966zM85.592 228.913c-3.426-16.226-5.495-33.745-6.077-52.234H22.238c1.745 23.079 8.986 44.671 20.299 63.418 14.352-4.331 28.703-8.145 43.055-11.184zM112.162 86.044c12.735 1.681 27.152 2.844 42.667 3.168V24.178c-16.421 6.852-32.453 28.961-42.667 61.866zM154.828 111.386c-17.713-.323-33.875-1.681-48.162-3.814-2.909 14.352-4.784 30.19-5.43 47.321h53.527v-43.507h.065zM154.828 307.523v-65.034c-14.158.517-28.251 1.875-42.408 3.943 10.214 32.453 26.053 54.239 42.408 61.091zM55.531 73.374c8.016 2.651 19.911 6.077 35.232 9.115 6.012-20.234 14.158-37.689 23.984-51.2-23.208 8.792-43.507 23.467-59.216 42.085z"/></g><path d="M287.935 165.624l-11.184 11.184c-1.034-.065-2.004-.065-3.038-.065-53.463 0-97.034 43.507-97.034 97.034 0 1.034 0 2.004.065 3.038l-10.925 10.925c-67.362 0-122.182-54.82-122.182-122.182s54.755-122.18 122.181-122.18c67.297.129 122.117 54.885 122.117 122.246z" fill="#56ace0"/><path d="M330.861 169.568c.453-1.164.711-2.457.711-3.814C331.572 74.343 257.164 0 165.754 0S0 74.408 0 165.818s74.343 165.754 165.754 165.754c1.293 0 2.651-.323 3.814-.711 20.234 36.719 59.345 61.673 104.145 61.673 65.552.065 118.82-53.269 118.82-118.756 0-44.865-24.953-83.911-61.672-104.21zM114.748 31.289c-9.826 13.511-17.907 30.966-23.984 51.2-15.192-3.038-27.216-6.465-35.232-9.115 15.708-18.618 36.007-33.293 59.216-42.085zM42.279 91.927c8.21 3.038 22.949 7.887 43.119 11.96-3.232 15.838-5.236 32.97-5.883 51.006H22.238c1.681-22.82 8.792-44.283 20.041-62.966zm.323 148.299c-11.378-18.747-18.618-40.404-20.299-63.418h57.341c.646 18.489 2.715 36.008 6.077 52.234-14.481 2.91-28.832 6.724-43.119 11.184zm13.511 18.618a418.873 418.873 0 0134.974-8.727c6.012 19.846 14.093 37.042 23.725 50.295-23.014-8.727-43.119-23.079-58.699-41.568zm98.715 48.679c-16.356-6.788-32.194-28.574-42.408-61.091 14.158-2.069 28.251-3.426 42.408-3.943v65.034zm0-86.949c-15.968.646-32 2.069-47.903 4.461-3.103-14.675-5.042-30.901-5.624-48.356h53.527v43.895zm0-65.681h-53.527c.517-17.067 2.457-32.905 5.43-47.321a399.083 399.083 0 0048.162 3.814v43.507h-.065zm0-65.681c-15.58-.323-29.931-1.487-42.667-3.168 10.214-32.905 26.117-55.014 42.667-61.867v65.035zm134.142 2.263c11.378 18.747 18.618 40.404 20.299 63.418h-57.277c-.646-18.489-2.715-36.008-6.077-52.234 13.899-2.845 28.251-6.53 43.055-11.184zm-13.447-18.618c-11.96 3.556-23.661 6.335-34.974 8.663-6.012-19.782-14.093-36.913-23.661-50.23a144.142 144.142 0 0158.635 41.567zm-98.78-48.679c16.356 6.788 32.194 28.574 42.408 61.026-14.869 2.133-28.962 3.297-42.408 3.879V24.178zm0 87.079c15.063-.517 31.16-2.004 47.903-4.655 3.038 14.61 5.042 30.836 5.56 48.291h-53.527v-43.636h.064zm0 65.551h28.574c-11.055 7.822-20.687 17.455-28.574 28.574v-28.574zm96.97 194.004c-53.463 0-97.034-43.507-97.034-97.034s43.572-96.97 97.034-96.97 97.034 43.507 97.034 97.034-43.507 96.97-97.034 96.97z" fill="#194f82"/><path d="M273.713 176.808c-53.463 0-97.034 43.507-97.034 97.034s43.572 96.97 97.034 96.97 97.034-43.507 97.034-97.034-43.507-96.97-97.034-96.97z" fill="#ffc10d"/><path d="M273.713 226.263c10.15 0 18.36 8.275 18.36 18.36 0 6.012 4.848 10.925 10.925 10.925 6.012 0 10.925-4.848 10.925-10.925 0-18.36-12.412-33.875-29.285-38.659v-8.404c0-6.012-4.848-10.925-10.925-10.925-6.012 0-10.925 4.848-10.925 10.925v8.404c-16.873 4.784-29.285 20.234-29.285 38.659 0 22.174 19.523 40.081 41.697 40.081-.323.065 0 0 .065 0 9.374.84 16.743 8.727 16.743 18.295 0 10.15-8.275 18.36-18.36 18.36-10.085 0-18.36-8.275-18.36-18.36 0-6.012-4.848-10.925-10.925-10.925-6.012 0-10.925 4.848-10.925 10.925 0 18.36 12.412 33.875 29.285 38.659v8.339c0 6.012 4.848 10.925 10.925 10.925 6.012 0 10.925-4.848 10.925-10.925v-8.404c16.873-4.784 29.285-20.234 29.285-38.659 0-22.174-18.036-40.21-40.21-40.21.323-.065 0 0-.065 0-9.438-.84-18.295-8.598-18.295-18.166.001-10.085 8.276-18.295 18.425-18.295z" fill="#194f82"/></svg>