<svg xmlns="http://www.w3.org/2000/svg" viewBox="0 0 512 512"><circle cx="256" cy="256" r="256" fill="#366796"/><g fill="#273b7a"><path d="M132.948 359.036L284.341 510.43c74.764-8.237 139.829-48.656 181.036-107.113L305.993 243.933 132.948 359.036zM392.776 118.982c-41.825-26.462-88.447-18.091-97.861-21.225l42.612 34.121-43.151 1.85 40.996 34.783-23.704 1.293c37.495 6.034 37.398 54.243 37.398 54.243l139.361 139.361C503.548 330.742 512 294.36 512 256c0-6.239-.234-12.424-.674-18.551L395.631 121.754l-2.855-2.772z"/></g><circle cx="214.557" cy="293.633" r="104.584" fill="#ffedb5"/><path d="M214.557 189.056c-.748 0-1.486.04-2.229.057v209.055c.745.016 1.481.057 2.229.057 57.759 0 104.584-46.823 104.584-104.584s-46.824-104.585-104.584-104.585z" fill="#fde085"/><g fill="#386895"><circle cx="171.77" cy="279.911" r="9.507"/><circle cx="259.724" cy="279.911" r="9.507"/><path d="M186.28 336.555c6.684 8.214 16.863 13.469 28.277 13.469 11.414 0 21.595-5.254 28.277-13.469H186.28z"/></g><g fill="#ffc61b"><path d="M353.963 225.577a8.619 8.619 0 01-8.62-8.62c0-24.762-20.146-44.908-44.908-44.908-4.761 0-8.62-3.858-8.62-8.62s3.858-8.62 8.62-8.62c34.268 0 62.147 27.879 62.147 62.147a8.62 8.62 0 01-8.619 8.621z"/><path d="M389.791 225.577a8.619 8.619 0 01-8.62-8.62c0-21.568-8.397-41.843-23.647-57.092-15.246-15.246-35.519-23.643-57.078-23.643h-.009a8.62 8.62 0 01-8.621-8.618 8.62 8.62 0 018.618-8.621h.012c26.167 0 50.766 10.188 69.27 28.693 18.504 18.504 28.696 43.11 28.696 69.282a8.622 8.622 0 01-8.621 8.619z"/><path d="M426.667 226.118a8.619 8.619 0 01-8.62-8.62c0-31.565-12.29-61.237-34.606-83.554-22.311-22.311-51.979-34.599-83.532-34.599h-.017a8.62 8.62 0 01-8.621-8.618 8.62 8.62 0 018.618-8.621h.021c36.161 0 70.153 14.081 95.722 39.648 25.572 25.572 39.657 59.576 39.655 95.744a8.62 8.62 0 01-8.62 8.62z"/></g></svg>