<svg xmlns="http://www.w3.org/2000/svg" viewBox="0 0 512 512"><circle cx="256" cy="256" r="256" fill="#71e2f0"/><path d="M378.844 132.723c-8.371 3.027-18.442 2.524-26.305-.845-20.687-6.896-37.926-25.859-58.613-32.754-29.91-8.052-59.052-3.817-87.94 4.499l-68.339 40.2-34.287 64.384c-6.173 43.827-8.93 87.483 9.556 127.093 6.713 13.424 13.774 27.953 18.479 42.194l134.228 134.308c133.73-4.944 241.236-112.45 246.181-246.181l-132.96-132.898z" fill="#38c6d9"/><path d="M256 81.886c-96.006 0-174.114 78.108-174.114 174.114S159.994 430.114 256 430.114 430.114 352.006 430.114 256 352.006 81.886 256 81.886zM369.304 351.47a172.455 172.455 0 00-16.996-13.272c7.394-21.182 11.84-44.715 12.998-69.268h38.352c-2.719 31.292-15.183 59.822-34.354 82.54zM142.696 160.53a172.455 172.455 0 0016.996 13.272c-7.394 21.182-11.84 44.715-12.998 69.268h-38.352c2.719-31.292 15.183-59.822 34.354-82.54zm199.467-10.747a171.099 171.099 0 00-6.692-12.023 154.953 154.953 0 00-6.644-9.966c7.63 4.422 14.9 9.549 21.709 15.376-2.716 2.324-5.519 4.51-8.373 6.613zm8.373 219.047a145.823 145.823 0 01-21.709 15.376 154.4 154.4 0 006.644-9.966 171.959 171.959 0 006.692-12.023c2.854 2.103 5.657 4.289 8.373 6.613zm-180.699-6.613a171.099 171.099 0 006.692 12.023 154.953 154.953 0 006.644 9.966 145.823 145.823 0 01-21.709-15.376c2.716-2.324 5.519-4.51 8.373-6.613zm-8.373-219.047a145.823 145.823 0 0121.709-15.376 154.4 154.4 0 00-6.644 9.966 171.959 171.959 0 00-6.692 12.023c-2.854-2.103-5.657-4.289-8.373-6.613zm79.652 191.604c4.915-.495 9.876-.774 14.884-.774 5.008 0 9.969.279 14.884.774-4.051 32.82-10.123 53.972-14.884 62.655-4.761-8.683-10.833-29.835-14.884-62.655zM256 308.576c-5.847 0-11.648.293-17.387.867-.933-12.319-1.57-25.841-1.81-40.514H275.2c-.24 14.672-.877 28.193-1.81 40.514a174.185 174.185 0 00-17.39-.867zm-19.197-65.505c.24-14.672.877-28.193 1.81-40.514a174.68 174.68 0 0034.774 0c.933 12.319 1.57 25.841 1.81 40.514h-38.394zM256 178c-5.008 0-9.969-.279-14.884-.774 4.051-32.82 10.123-53.972 14.884-62.655 4.761 8.683 10.833 29.836 14.884 62.655-4.915.495-9.876.774-14.884.774zm-30.051-57.227c-1.953 6.287-3.755 13.465-5.422 21.601-1.879 9.163-3.5 19.232-4.853 29.977a143.48 143.48 0 01-23.597-9.068c9.056-18.642 20.706-33.419 33.872-42.51zm-12.888 77.25c-1.143 14.334-1.858 29.47-2.114 45.047h-38.364c1.074-20.028 4.598-39.038 10.05-56.073a168.795 168.795 0 0030.428 11.026zm-2.114 70.906c.255 15.577.971 30.713 2.114 45.047a168.605 168.605 0 00-30.427 11.026c-5.454-17.036-8.976-36.043-10.05-56.073h38.363zm4.726 70.72c1.355 10.745 2.974 20.814 4.853 29.977 1.669 8.135 3.469 15.313 5.422 21.601-13.165-9.09-24.816-23.867-33.873-42.51a143.628 143.628 0 0123.598-9.068zm70.378 51.578c1.953-6.287 3.755-13.465 5.422-21.601 1.879-9.163 3.5-19.232 4.853-29.977a143.48 143.48 0 0123.597 9.068c-9.056 18.642-20.706 33.419-33.872 42.51zm12.888-77.25c1.143-14.334 1.858-29.47 2.113-45.047h38.364c-1.074 20.028-4.598 39.038-10.05 56.073a168.758 168.758 0 00-30.427-11.026zm2.114-70.906c-.255-15.577-.971-30.713-2.113-45.047a168.605 168.605 0 0030.427-11.026c5.454 17.036 8.976 36.043 10.05 56.073h-38.364zm-4.726-70.72c-1.355-10.745-2.974-20.814-4.853-29.977-1.669-8.135-3.468-15.315-5.422-21.601 13.165 9.09 24.816 23.867 33.873 42.51a143.628 143.628 0 01-23.598 9.068zm-149.633 96.578c1.158 24.554 5.604 48.087 12.998 69.268a172.304 172.304 0 00-16.996 13.272c-19.172-22.718-31.635-51.248-34.354-82.541h38.352zm218.612-25.858c-1.158-24.554-5.604-48.087-12.998-69.268a172.304 172.304 0 0016.996-13.272c19.172 22.718 31.637 51.248 34.354 82.541h-38.352z" fill="#273b7a"/><path d="M256 81.886c-.576 0-1.148.016-1.724.022v36.243A43.253 43.253 0 01256 114.57c4.761 8.683 10.833 29.836 14.884 62.655-4.915.496-9.876.775-14.884.775-.576 0-1.148-.016-1.724-.024v25.426c.574.005 1.148.022 1.724.022 5.847 0 11.648-.293 17.387-.867.933 12.319 1.57 25.841 1.81 40.514h-20.921v25.859h20.921c-.24 14.672-.877 28.193-1.81 40.514a174.68 174.68 0 00-17.387-.867c-.576 0-1.148.016-1.724.022v25.426c.574-.008 1.148-.025 1.724-.025 5.008 0 9.969.279 14.884.774-4.051 32.82-10.123 53.972-14.884 62.655-.559-1.017-1.134-2.222-1.724-3.581v36.243c.574.005 1.148.022 1.724.022 96.006 0 174.114-78.108 174.114-174.114S352.006 81.886 256 81.886zm113.304 78.644c19.172 22.718 31.637 51.248 34.354 82.541h-38.352c-1.158-24.554-5.604-48.087-12.998-69.268a173.09 173.09 0 0016.996-13.273zm-49.38 2.753a143.57 143.57 0 01-23.597 9.068c-1.355-10.745-2.974-20.814-4.853-29.977-1.669-8.135-3.469-15.315-5.422-21.601 13.165 9.091 24.815 23.868 33.872 42.51zm-18.871 79.788c-.255-15.577-.971-30.713-2.113-45.047a168.605 168.605 0 0030.427-11.026c5.454 17.036 8.976 36.043 10.05 56.073h-38.364zm38.363 25.858c-1.074 20.028-4.598 39.038-10.05 56.073a168.779 168.779 0 00-30.427-11.026c1.143-14.334 1.858-29.47 2.113-45.047h38.364zm-53.365 122.298c1.953-6.287 3.755-13.465 5.422-21.601 1.879-9.163 3.5-19.232 4.853-29.977a143.48 143.48 0 0123.597 9.068c-9.056 18.642-20.706 33.419-33.872 42.51zm42.775-7.022a154.4 154.4 0 006.644-9.966 171.959 171.959 0 006.692-12.023c2.853 2.103 5.656 4.291 8.373 6.613a145.531 145.531 0 01-21.709 15.376zm13.337-234.422a171.099 171.099 0 00-6.692-12.023 154.953 154.953 0 00-6.644-9.966c7.63 4.422 14.9 9.549 21.709 15.376-2.716 2.324-5.519 4.51-8.373 6.613zm27.141 201.687a172.455 172.455 0 00-16.996-13.272c7.394-21.182 11.84-44.715 12.998-69.268h38.352c-2.719 31.292-15.183 59.822-34.354 82.54z" fill="#121149"/></svg>